<?xml version="1.0" encoding="UTF-8"?>
<!--Generator: Apple Native CoreSVG 326-->
<!DOCTYPE svg
PUBLIC "-//W3C//DTD SVG 1.1//EN"
       "http://www.w3.org/Graphics/SVG/1.1/DTD/svg11.dtd">
<svg version="1.1" xmlns="http://www.w3.org/2000/svg" xmlns:xlink="http://www.w3.org/1999/xlink" viewBox="0 0 26.3916 21.8208">
 <g>
  <rect height="21.8208" opacity="0" width="26.3916" x="0" y="0"/>
  <path d="M26.0435 19.9678L26.0435 1.8418C26.0435 0.583984 25.3022 0 24.4487 0C24.0669 0 23.6851 0.112305 23.3032 0.325684L8.09717 9.25391C7.14258 9.8042 6.74951 10.2422 6.74951 10.9048C6.74951 11.5674 7.14258 11.9941 8.09717 12.5444L23.3032 21.4727C23.6851 21.686 24.0669 21.7983 24.4487 21.7983C25.3022 21.7983 26.0435 21.2256 26.0435 19.9678ZM5.03125 21.731C6.23291 21.731 6.82812 21.1357 6.82812 19.9341L6.82812 1.85303C6.82812 0.662598 6.23291 0.0561523 5.03125 0.0561523L1.79688 0.0561523C0.595215 0.0561523 0 0.606445 0 1.85303L0 19.9341C0 21.1357 0.595215 21.731 1.79688 21.731Z" fill="#1d763e"/>
 </g>
</svg>
