<?xml version="1.0" encoding="UTF-8"?>
<!--Generator: Apple Native CoreSVG 326-->
<!DOCTYPE svg
PUBLIC "-//W3C//DTD SVG 1.1//EN"
       "http://www.w3.org/Graphics/SVG/1.1/DTD/svg11.dtd">
<svg version="1.1" xmlns="http://www.w3.org/2000/svg" xmlns:xlink="http://www.w3.org/1999/xlink" viewBox="0 0 35.8261 36.3443">
 <g>
  <rect height="36.3443" opacity="0" width="35.8261" x="0" y="0"/>
  <path d="M10.6407 4.16616L10.6407 5.26999C10.6407 5.46476 10.6529 5.66011 10.6893 5.83693L10.1076 5.83693C8.60116 5.83693 7.84447 6.73926 7.84447 8.2457L7.84447 30.3817C7.84447 31.9424 8.67398 32.8026 10.2896 32.8026L25.5367 32.8026C27.1402 32.8026 27.9761 31.9424 27.9761 30.3817L27.9761 19.3185L29.9711 17.3262L29.9711 30.4187C29.9711 33.3271 28.5128 34.7854 25.6343 34.7854L10.1798 34.7854C7.30776 34.7854 5.85523 33.3271 5.85523 30.4187L5.85523 8.2087C5.85523 5.36089 7.2592 3.83555 10.0585 3.83555L10.6529 3.83555C10.6407 3.93959 10.6407 4.06214 10.6407 4.16616ZM29.9711 8.2087L29.9711 8.54045L27.9761 10.532L27.9761 8.2457C27.9761 6.73926 27.213 5.83693 25.7187 5.83693L25.1434 5.83693C25.1734 5.66011 25.1856 5.46476 25.1856 5.26999L25.1856 4.16616C25.1856 4.06214 25.1856 3.93959 25.1734 3.83555L25.7678 3.83555C28.5549 3.83555 29.9711 5.36089 29.9711 8.2087ZM20.9002 2.85416L22.3506 2.85416C23.1424 2.85416 23.621 3.33214 23.621 4.1598L23.621 5.65626C23.621 6.47755 23.1424 6.9619 22.3506 6.9619L13.4636 6.9619C12.6781 6.9619 12.2053 6.47755 12.2053 5.65626L12.2053 4.1598C12.2053 3.33214 12.6781 2.85416 13.4636 2.85416L14.9139 2.85416C14.9989 1.27333 16.3086-3.55271e-15 17.9132-3.55271e-15C19.524-3.55271e-15 20.8274 1.27333 20.9002 2.85416ZM16.6236 2.93275C16.6236 3.6362 17.2033 4.22232 17.9132 4.22232C18.623 4.22232 19.1906 3.6362 19.1906 2.93275C19.1906 2.21658 18.623 1.64895 17.9132 1.64895C17.2033 1.64895 16.6236 2.21658 16.6236 2.93275Z" fill="#1d7b41"/>
  <path d="M14.4098 24.9425C14.4098 25.3766 14.0491 25.7372 13.6215 25.7372L11.4017 25.7372C10.974 25.7372 10.6134 25.3766 10.6134 24.9425C10.6134 24.5148 10.9619 24.1663 11.4017 24.1663L13.6215 24.1663C14.0613 24.1663 14.4098 24.5148 14.4098 24.9425ZM18.2454 20.246L11.4017 20.246C10.9619 20.246 10.6134 19.9038 10.6134 19.4577C10.6134 19.0236 10.9619 18.6815 11.4017 18.6815L19.8126 18.6815ZM24.8786 13.6242L23.4427 15.0576L11.4017 15.0576C10.974 15.0576 10.6134 14.697 10.6134 14.2693C10.6134 13.8353 10.974 13.4746 11.4017 13.4746L24.4246 13.4746C24.5923 13.4746 24.7497 13.5301 24.8786 13.6242Z" fill="#1d7b41"/>
  <path d="M32.5898 12.1833L33.6296 11.1256C34.1475 10.6019 34.1539 9.9586 33.6672 9.45979L33.3811 9.17372C32.932 8.73676 32.2569 8.78588 31.7766 9.2662L30.7246 10.2997ZM16.5794 26.6533L19.4145 25.3337L31.5633 13.2098L29.6924 11.3568L17.5436 23.4743L16.1691 26.2308C16.0523 26.4765 16.3223 26.7701 16.5794 26.6533Z" fill="#1d7b41"/>
 </g>
</svg>
