<?xml version="1.0" encoding="UTF-8"?>
<!--Generator: Apple Native CoreSVG 326-->
<!DOCTYPE svg
PUBLIC "-//W3C//DTD SVG 1.1//EN"
       "http://www.w3.org/Graphics/SVG/1.1/DTD/svg11.dtd">
<svg version="1.1" xmlns="http://www.w3.org/2000/svg" xmlns:xlink="http://www.w3.org/1999/xlink" viewBox="0 0 41.1709 21.8208">
 <g>
  <rect height="21.8208" opacity="0" width="41.1709" x="0" y="0"/>
  <path d="M2.66162 19.9678C2.66162 21.2256 3.40283 21.7983 4.25635 21.7983C4.63818 21.7983 5.02002 21.686 5.40186 21.4727L20.6191 12.5444C21.5737 11.9941 21.9556 11.5674 21.9556 10.9048C21.9556 10.2422 21.5737 9.8042 20.6191 9.25391L5.40186 0.325684C5.02002 0.112305 4.63818 0 4.25635 0C3.40283 0 2.66162 0.583984 2.66162 1.8418ZM21.877 19.9678C21.877 21.2256 22.6182 21.7983 23.4717 21.7983C23.8535 21.7983 24.2354 21.686 24.6172 21.4727L39.8232 12.5444C40.7891 11.9941 41.1709 11.5674 41.1709 10.9048C41.1709 10.2422 40.7891 9.8042 39.8232 9.25391L24.6172 0.325684C24.2354 0.112305 23.8535 0 23.4717 0C22.6182 0 21.877 0.583984 21.877 1.8418Z" fill="#1d763e"/>
 </g>
</svg>
