<?xml version="1.0" encoding="UTF-8"?>
<!--Generator: Apple Native CoreSVG 326-->
<!DOCTYPE svg
PUBLIC "-//W3C//DTD SVG 1.1//EN"
       "http://www.w3.org/Graphics/SVG/1.1/DTD/svg11.dtd">
<svg version="1.1" xmlns="http://www.w3.org/2000/svg" xmlns:xlink="http://www.w3.org/1999/xlink" viewBox="0 0 29.255 29.2613">
 <g>
  <rect height="29.2613" opacity="0" width="29.255" x="0" y="0"/>
  <path d="M14.6214 29.2428C22.6991 29.2428 29.255 22.6991 29.255 14.6214C29.255 6.54369 22.6991 0 14.6214 0C6.55581 0 0 6.54369 0 14.6214C0 22.6991 6.55581 29.2428 14.6214 29.2428ZM14.6214 27.1565C7.6903 27.1565 2.09209 21.5525 2.09209 14.6214C2.09209 7.69028 7.6903 2.08632 14.6214 2.08632C21.5525 2.08632 27.1565 7.69028 27.1565 14.6214C27.1565 21.5525 21.5525 27.1565 14.6214 27.1565Z" fill="#1d7b41"/>
  <path d="M21.3327 16.6068C22.4332 16.6068 23.3309 15.7155 23.3309 14.6087C23.3309 13.5018 22.4332 12.5984 21.3327 12.5984C20.2137 12.5984 19.3161 13.5018 19.3161 14.6087C19.3161 15.7155 20.2137 16.6068 21.3327 16.6068Z" fill="#1d7b41"/>
  <path d="M14.6093 16.6068C15.7283 16.6068 16.6195 15.7155 16.6195 14.6087C16.6195 13.5018 15.7283 12.5984 14.6093 12.5984C13.5024 12.5984 12.6112 13.5018 12.6112 14.6087C12.6112 15.7155 13.5024 16.6068 14.6093 16.6068Z" fill="#1d7b41"/>
  <path d="M7.89795 16.6068C9.00481 16.6068 9.91457 15.7155 9.91457 14.6087C9.91457 13.5018 8.99269 12.5984 7.89795 12.5984C6.79744 12.5984 5.89981 13.5018 5.89981 14.6087C5.89981 15.7155 6.79744 16.6068 7.89795 16.6068Z" fill="#1d7b41"/>
 </g>
</svg>
