<?xml version="1.0" encoding="UTF-8"?>
<!--Generator: Apple Native CoreSVG 326-->
<!DOCTYPE svg
PUBLIC "-//W3C//DTD SVG 1.1//EN"
       "http://www.w3.org/Graphics/SVG/1.1/DTD/svg11.dtd">
<svg version="1.1" xmlns="http://www.w3.org/2000/svg" xmlns:xlink="http://www.w3.org/1999/xlink" viewBox="0 0 17.4072 23.6401">
 <g>
  <rect height="23.6401" opacity="0" width="17.4072" x="0" y="0"/>
  <path d="M1.79688 23.6177L5.03125 23.6177C6.23291 23.6177 6.82812 23.0225 6.82812 21.8208L6.82812 1.79688C6.82812 0.550293 6.23291 0 5.03125 0L1.79688 0C0.595215 0 0 0.595215 0 1.79688L0 21.8208C0 23.0225 0.595215 23.6177 1.79688 23.6177ZM12.0278 23.6177L15.2622 23.6177C16.4639 23.6177 17.0591 23.0225 17.0591 21.8208L17.0591 1.79688C17.0591 0.550293 16.4639 0 15.2622 0L12.0278 0C10.8262 0 10.231 0.595215 10.231 1.79688L10.231 21.8208C10.231 23.0225 10.8262 23.6177 12.0278 23.6177Z" fill="#1e783f"/>
 </g>
</svg>
