<?xml version="1.0" encoding="UTF-8"?>
<!--Generator: Apple Native CoreSVG 326-->
<!DOCTYPE svg
PUBLIC "-//W3C//DTD SVG 1.1//EN"
       "http://www.w3.org/Graphics/SVG/1.1/DTD/svg11.dtd">
<svg version="1.1" xmlns="http://www.w3.org/2000/svg" xmlns:xlink="http://www.w3.org/1999/xlink" viewBox="0 0 25.4082 30.6473">
 <g>
  <rect height="30.6473" opacity="0" width="25.4082" x="0" y="0"/>
  <path d="M4.37366 30.6473L21.0351 30.6473C23.9435 30.6473 25.4082 29.1821 25.4082 26.3227L25.4082 11.908C25.4082 9.06081 23.9435 7.58341 21.0351 7.58341L4.37366 7.58341C1.47732 7.58341 0.000524494 9.03592 0.000524494 11.908L0.000524494 26.3227C0.000524494 29.1948 1.47732 30.6473 4.37366 30.6473ZM12.7047 0.159042C13.2415 0.159042 13.6993 0.598259 13.6993 1.11724L13.6993 16.1934L13.6201 18.3182L14.4999 17.3956L16.9416 14.8325C17.1248 14.6372 17.3751 14.5395 17.6253 14.5395C18.1252 14.5395 18.5223 14.9059 18.5223 15.4185C18.5223 15.6745 18.4125 15.8699 18.2293 16.0652L13.4184 20.7368C13.1745 20.9807 12.967 21.0663 12.7047 21.0663C12.4544 21.0663 12.2406 20.9807 12.0031 20.7368L7.1858 16.0652C6.99047 15.8699 6.89279 15.6745 6.89279 15.4185C6.89279 14.9059 7.26499 14.5395 7.7776 14.5395C8.02785 14.5395 8.29024 14.6372 8.46131 14.8325L10.9088 17.3956L11.8014 18.3245L11.7222 16.1934L11.7222 1.11724C11.7222 0.598259 12.1799 0.159042 12.7047 0.159042Z" fill="#1d7b41"/>
 </g>
</svg>
