<?xml version="1.0" encoding="UTF-8"?>
<!--Generator: Apple Native CoreSVG 326-->
<!DOCTYPE svg
PUBLIC "-//W3C//DTD SVG 1.1//EN"
       "http://www.w3.org/Graphics/SVG/1.1/DTD/svg11.dtd">
<svg version="1.1" xmlns="http://www.w3.org/2000/svg" xmlns:xlink="http://www.w3.org/1999/xlink" viewBox="0 0 29.255 29.2613">
 <g>
  <rect height="29.2613" opacity="0" width="29.255" x="0" y="0"/>
  <path d="M29.255 14.6214C29.255 22.6991 22.6991 29.2428 14.6214 29.2428C6.55581 29.2428 0 22.6991 0 14.6214C0 6.54369 6.55581 0 14.6214 0C22.6991 0 29.255 6.54369 29.255 14.6214ZM2.09209 14.6214C2.09209 21.5525 7.6903 27.1565 14.6214 27.1565C21.5525 27.1565 27.1565 21.5525 27.1565 14.6214C27.1565 7.69028 21.5525 2.08632 14.6214 2.08632C7.6903 2.08632 2.09209 7.69028 2.09209 14.6214Z" fill="#1d7b41"/>
  <path d="M21.1004 12.07L21.1004 19.393C21.1004 20.9068 20.2808 21.7074 18.7549 21.7074L10.4695 21.7074C8.93719 21.7074 8.13664 20.8947 8.13664 19.393L8.13664 12.07C8.13664 10.5562 8.93719 9.76141 10.4695 9.76141L12.8689 9.76141L12.8689 11.0653L10.488 11.0653C9.78099 11.0653 9.44053 11.4063 9.44053 12.1127L9.44053 19.3503C9.44053 20.0567 9.78099 20.4035 10.488 20.4035L18.7364 20.4035C19.4433 20.4035 19.7965 20.0439 19.7965 19.3503L19.7965 12.1127C19.7965 11.4312 19.4433 11.0653 18.7364 11.0653L16.3618 11.0653L16.3618 9.76141L18.7549 9.76141C20.2872 9.76141 21.1004 10.5377 21.1004 12.07Z" fill="#1d7b41"/>
  <path d="M14.6093 15.9711C14.9769 15.9711 15.252 15.6832 15.252 15.3342L15.252 7.7214L15.2213 7.03704L15.8693 7.7214L16.7128 8.5834C16.8232 8.70592 16.9821 8.77933 17.178 8.77933C17.5277 8.77933 17.7786 8.5279 17.7786 8.19731C17.7786 8.02567 17.7046 7.89099 17.5763 7.7627L15.0618 5.31528C14.915 5.17425 14.7682 5.10663 14.6029 5.10663C14.4497 5.10663 14.2902 5.18061 14.144 5.31528L11.6481 7.75634C11.4949 7.89735 11.4521 8.03839 11.4521 8.19731C11.4521 8.5279 11.7093 8.77297 12.0272 8.77297C12.2168 8.77297 12.3763 8.70592 12.493 8.57704L13.3302 7.7214L14.003 7.03704L13.9787 7.7214L13.9787 15.3342C13.9787 15.6832 14.2538 15.9711 14.6093 15.9711Z" fill="#1d7b41"/>
 </g>
</svg>
