<?xml version="1.0" encoding="UTF-8"?>
<!--Generator: Apple Native CoreSVG 326-->
<!DOCTYPE svg
PUBLIC "-//W3C//DTD SVG 1.1//EN"
       "http://www.w3.org/Graphics/SVG/1.1/DTD/svg11.dtd">
<svg version="1.1" xmlns="http://www.w3.org/2000/svg" xmlns:xlink="http://www.w3.org/1999/xlink" viewBox="0 0 29.255 29.2613">
 <g>
  <rect height="29.2613" opacity="0" width="29.255" x="0" y="0"/>
  <path d="M14.6214 29.2428C22.6991 29.2428 29.255 22.6991 29.255 14.6214C29.255 6.54369 22.6991 0 14.6214 0C6.55581 0 0 6.54369 0 14.6214C0 22.6991 6.55581 29.2428 14.6214 29.2428ZM14.6214 27.1565C7.6903 27.1565 2.09209 21.5525 2.09209 14.6214C2.09209 7.69028 7.6903 2.08632 14.6214 2.08632C21.5525 2.08632 27.1565 7.69028 27.1565 14.6214C27.1565 21.5525 21.5525 27.1565 14.6214 27.1565Z" fill="#d4d100"/>
  <path d="M13.0498 21.5022C13.4526 21.5022 13.7878 21.3068 14.0444 20.9352L20.9288 10.1415C21.0687 9.90402 21.2149 9.62313 21.2149 9.35497C21.2149 8.81231 20.7329 8.4453 20.2082 8.4453C19.8909 8.4453 19.5793 8.63488 19.3412 9.00069L12.9949 19.1025L9.8317 15.1342C9.53291 14.7441 9.25838 14.6401 8.91626 14.6401C8.38573 14.6401 7.95803 15.0672 7.95803 15.6226C7.95803 15.8913 8.07419 16.1601 8.24529 16.3982L11.9945 20.9352C12.3118 21.3374 12.6285 21.5022 13.0498 21.5022Z" fill="#d4d100"/>
 </g>
</svg>
