<?xml version="1.0" encoding="UTF-8"?>
<!--Generator: Apple Native CoreSVG 326-->
<!DOCTYPE svg
PUBLIC "-//W3C//DTD SVG 1.1//EN"
       "http://www.w3.org/Graphics/SVG/1.1/DTD/svg11.dtd">
<svg version="1.1" xmlns="http://www.w3.org/2000/svg" xmlns:xlink="http://www.w3.org/1999/xlink" viewBox="0 0 26.3971 26.414">
 <g>
  <rect height="26.414" opacity="0" width="26.3971" x="0" y="0"/>
  <path d="M17.0118 26.414L23.8129 26.414C25.5249 26.414 26.3971 25.5742 26.3971 23.7813L26.3971 17.0651C26.3971 15.2786 25.5249 14.4324 23.8129 14.4324L17.0118 14.4324C15.2998 14.4324 14.4276 15.2786 14.4276 17.0651L14.4276 23.7813C14.4276 25.5742 15.2998 26.414 17.0118 26.414ZM17.0488 24.6432C16.4585 24.6432 16.1863 24.371 16.1863 23.7807L16.1863 17.0778C16.1863 16.4755 16.4585 16.2032 17.0488 16.2032L23.7881 16.2032C24.3783 16.2032 24.6384 16.4755 24.6384 17.0778L24.6384 23.7807C24.6384 24.371 24.3783 24.6432 23.7881 24.6432Z" fill="#1d7b41"/>
  <path d="M2.58508 26.414L9.38624 26.414C11.0982 26.414 11.9704 25.5742 11.9704 23.7813L11.9704 17.0651C11.9704 15.2786 11.0982 14.4324 9.38624 14.4324L2.58508 14.4324C0.873115 14.4324 0.000942764 15.2786 0.000942764 17.0651L0.000942764 23.7813C0.000942764 25.5742 0.873115 26.414 2.58508 26.414ZM2.60997 24.6432C2.03187 24.6432 1.7596 24.371 1.7596 23.7807L1.7596 17.0778C1.7596 16.4755 2.03187 16.2032 2.60997 16.2032L9.34925 16.2032C9.93946 16.2032 10.2117 16.4755 10.2117 17.0778L10.2117 23.7807C10.2117 24.371 9.93946 24.6432 9.34925 24.6432Z" fill="#1d7b41"/>
  <path d="M17.0118 11.9752L23.8129 11.9752C25.5249 11.9752 26.3971 11.1412 26.3971 9.35467L26.3971 2.63846C26.3971 0.845553 25.5249 0.00576385 23.8129 0.00576385L17.0118 0.00576385C15.2998 0.00576385 14.4276 0.845553 14.4276 2.63846L14.4276 9.35467C14.4276 11.1412 15.2998 11.9752 17.0118 11.9752ZM17.0488 10.2166C16.4585 10.2166 16.1863 9.9443 16.1863 9.34193L16.1863 2.63905C16.1863 2.04882 16.4585 1.77658 17.0488 1.77658L23.7881 1.77658C24.3783 1.77658 24.6384 2.04882 24.6384 2.63905L24.6384 9.34193C24.6384 9.9443 24.3783 10.2166 23.7881 10.2166Z" fill="#1d7b41"/>
  <path d="M2.58508 11.9752L9.38624 11.9752C11.0982 11.9752 11.9704 11.1412 11.9704 9.35467L11.9704 2.63846C11.9704 0.845553 11.0982 0.00576385 9.38624 0.00576385L2.58508 0.00576385C0.873115 0.00576385 0.000942764 0.845553 0.000942764 2.63846L0.000942764 9.35467C0.000942764 11.1412 0.873115 11.9752 2.58508 11.9752ZM2.60997 10.2166C2.03187 10.2166 1.7596 9.9443 1.7596 9.34193L1.7596 2.63905C1.7596 2.04882 2.03187 1.77658 2.60997 1.77658L9.34925 1.77658C9.93946 1.77658 10.2117 2.04882 10.2117 2.63905L10.2117 9.34193C10.2117 9.9443 9.93946 10.2166 9.34925 10.2166Z" fill="#1d7b41"/>
 </g>
</svg>
