<?xml version="1.0" encoding="UTF-8"?>
<!--Generator: Apple Native CoreSVG 326-->
<!DOCTYPE svg
PUBLIC "-//W3C//DTD SVG 1.1//EN"
       "http://www.w3.org/Graphics/SVG/1.1/DTD/svg11.dtd">
<svg version="1.1" xmlns="http://www.w3.org/2000/svg" xmlns:xlink="http://www.w3.org/1999/xlink" viewBox="0 0 29.6035 29.2778">
 <g>
  <rect height="29.2778" opacity="0" width="29.6035" x="0" y="0"/>
  <path d="M29.2554 14.6333C29.2554 22.6855 22.6855 29.2554 14.6221 29.2554C6.56982 29.2554 0 22.6855 0 14.6333C0 6.56982 6.56982 0 14.6221 0C22.6855 0 29.2554 6.56982 29.2554 14.6333ZM13.5552 8.79346L13.5552 13.5552L8.80469 13.5552C8.15332 13.5552 7.7041 13.9932 7.7041 14.6445C7.7041 15.2622 8.16455 15.689 8.80469 15.689L13.5552 15.689L13.5552 20.4619C13.5552 21.0796 13.9932 21.54 14.6108 21.54C15.251 21.54 15.689 21.0908 15.689 20.4619L15.689 15.689L20.4619 15.689C21.0796 15.689 21.54 15.2622 21.54 14.6445C21.54 13.9932 21.0908 13.5552 20.4619 13.5552L15.689 13.5552L15.689 8.79346C15.689 8.15332 15.251 7.7041 14.6108 7.7041C13.9932 7.7041 13.5552 8.16455 13.5552 8.79346Z" fill="#1d7b41"/>
 </g>
</svg>
