<?xml version="1.0" encoding="UTF-8"?>
<!--Generator: Apple Native CoreSVG 326-->
<!DOCTYPE svg
PUBLIC "-//W3C//DTD SVG 1.1//EN"
       "http://www.w3.org/Graphics/SVG/1.1/DTD/svg11.dtd">
<svg version="1.1" xmlns="http://www.w3.org/2000/svg" xmlns:xlink="http://www.w3.org/1999/xlink" viewBox="0 0 41.8672 21.8208">
 <g>
  <rect height="21.8208" opacity="0" width="41.8672" x="0" y="0"/>
  <path d="M38.5093 19.9678L38.5093 1.8418C38.5093 0.583984 37.7681 0 36.9146 0C36.5327 0 36.1509 0.112305 35.769 0.325684L20.5518 9.25391C19.5972 9.8042 19.2153 10.2422 19.2153 10.9048C19.2153 11.5674 19.5972 11.9941 20.5518 12.5444L35.769 21.4727C36.1509 21.686 36.5327 21.7983 36.9146 21.7983C37.7681 21.7983 38.5093 21.2256 38.5093 19.9678ZM19.2939 19.9678L19.2939 1.8418C19.2939 0.583984 18.5527 0 17.6992 0C17.3174 0 16.9355 0.112305 16.5537 0.325684L1.34766 9.25391C0.393066 9.8042 0 10.2422 0 10.9048C0 11.5674 0.393066 11.9941 1.34766 12.5444L16.5537 21.4727C16.9355 21.686 17.3174 21.7983 17.6992 21.7983C18.5527 21.7983 19.2939 21.2256 19.2939 19.9678Z" fill="#1d763e"/>
 </g>
</svg>
