<?xml version="1.0" encoding="UTF-8"?>
<!--Generator: Apple Native CoreSVG 326-->
<!DOCTYPE svg
PUBLIC "-//W3C//DTD SVG 1.1//EN"
       "http://www.w3.org/Graphics/SVG/1.1/DTD/svg11.dtd">
<svg version="1.1" xmlns="http://www.w3.org/2000/svg" xmlns:xlink="http://www.w3.org/1999/xlink" viewBox="0 0 26.3971 26.414">
 <g>
  <rect height="26.414" opacity="0" width="26.3971" x="0" y="0"/>
  <path d="M4.37408 26.414L22.0239 26.414C24.9324 26.414 26.3971 24.9366 26.3971 22.0773L26.3971 4.34249C26.3971 1.48316 24.9324 0.00576385 22.0239 0.00576385L4.37408 0.00576385C1.47774 0.00576385 0.000942764 1.47044 0.000942764 4.34249L0.000942764 22.0773C0.000942764 24.9494 1.47774 26.414 4.37408 26.414Z" fill="#ff3b30"/>
  <path d="M8.32774 19.1252C7.75386 19.1252 7.28976 18.6675 7.28976 18.0878C7.28976 17.8127 7.39959 17.5688 7.60765 17.3608L11.7521 13.2162L7.60765 9.07176C7.39959 8.8637 7.28976 8.61981 7.28976 8.34472C7.28976 7.76505 7.75386 7.3316 8.32774 7.3316C8.62134 7.3316 8.83458 7.42926 9.04902 7.63156L13.2051 11.7755L17.3732 7.61941C17.5998 7.40498 17.8194 7.30731 18.1067 7.30731C18.6684 7.30731 19.1325 7.7529 19.1325 8.32044C19.1325 8.60768 19.047 8.83942 18.8267 9.05963L14.6701 13.2162L18.8146 17.3486C19.0227 17.5567 19.1204 17.8006 19.1204 18.0878C19.1204 18.6675 18.6563 19.1252 18.0824 19.1252C17.783 19.1252 17.527 19.0275 17.3369 18.8131L13.2051 14.6692L9.08542 18.8131C8.87099 19.0275 8.62134 19.1252 8.32774 19.1252Z" fill="white"/>
 </g>
</svg>
