<?xml version="1.0" encoding="UTF-8"?>
<!--Generator: Apple Native CoreSVG 326-->
<!DOCTYPE svg
PUBLIC "-//W3C//DTD SVG 1.1//EN"
       "http://www.w3.org/Graphics/SVG/1.1/DTD/svg11.dtd">
<svg version="1.1" xmlns="http://www.w3.org/2000/svg" xmlns:xlink="http://www.w3.org/1999/xlink" viewBox="0 0 16.8023 26.3516">
 <g>
  <rect height="26.3516" opacity="0" width="16.8023" x="0" y="0"/>
  <path d="M16.8023 2.22928L16.8023 2.53454C16.8023 5.94416 13.1036 9.72854 10.9497 11.8638C10.1302 12.6712 10.0817 13.5642 10.9497 14.4322C13.1036 16.5676 16.8023 20.3704 16.8023 23.7616L16.8023 24.1038C16.8023 25.5395 15.948 26.3331 14.573 26.3331L2.22991 26.3331C0.854908 26.3331 0.000628273 25.5395 0.000628273 24.1038L0.000628273 23.7616C0.000628273 20.3704 3.69936 16.5676 5.85316 14.4322C6.72124 13.5642 6.66058 12.6712 5.85316 11.8638C3.69936 9.72854 0.000628273 5.94416 0.000628273 2.53454L0.000628273 2.22928C0.000628273 0.793594 0.854908 0 2.22991 0L14.573 0C15.948 0 16.8023 0.793594 16.8023 2.22928ZM4.25065 7.00726C3.83972 7.00726 3.65591 7.41126 3.99288 7.76731C4.92639 8.79567 6.33451 10.053 7.39408 10.9894C7.82812 11.3564 7.93156 11.6367 7.93156 12.2233L7.93156 18.4513C7.93156 18.686 7.87666 18.7599 7.69745 18.9334L2.94895 23.5259C2.54955 23.901 2.69811 24.5501 3.26162 24.5501L13.5292 24.5501C14.0927 24.5501 14.2413 23.901 13.854 23.5259L9.10547 18.9334C8.92627 18.7599 8.87137 18.686 8.87137 18.4513L8.87137 12.2233C8.87137 11.6367 8.97481 11.3564 9.3967 10.9894C10.4684 10.053 11.8702 8.79567 12.7979 7.76731C13.1406 7.41126 12.9632 7.00726 12.5523 7.00726Z" fill="#1d7b41"/>
 </g>
</svg>
