<?xml version="1.0" encoding="UTF-8"?>
<!--Generator: Apple Native CoreSVG 326-->
<!DOCTYPE svg
PUBLIC "-//W3C//DTD SVG 1.1//EN"
       "http://www.w3.org/Graphics/SVG/1.1/DTD/svg11.dtd">
<svg version="1.1" xmlns="http://www.w3.org/2000/svg" xmlns:xlink="http://www.w3.org/1999/xlink" viewBox="0 0 26.3971 26.414">
 <g>
  <rect height="26.414" opacity="0" width="26.3971" x="0" y="0"/>
  <path d="M26.3971 4.34249L26.3971 22.0773C26.3971 24.9366 24.9324 26.414 22.0239 26.414L4.37408 26.414C1.47774 26.414 0.000942764 24.9494 0.000942764 22.0773L0.000942764 4.34249C0.000942764 1.47044 1.47774 0.00576385 4.37408 0.00576385L22.0239 0.00576385C24.9324 0.00576385 26.3971 1.48316 26.3971 4.34249ZM17.3732 7.61941L13.2051 11.7755L9.04902 7.63156C8.83458 7.42926 8.62134 7.3316 8.32774 7.3316C7.75386 7.3316 7.28976 7.76505 7.28976 8.34472C7.28976 8.61981 7.39959 8.8637 7.60765 9.07176L11.7521 13.2162L7.60765 17.3608C7.39959 17.5688 7.28976 17.8127 7.28976 18.0878C7.28976 18.6675 7.75386 19.1252 8.32774 19.1252C8.62134 19.1252 8.87099 19.0275 9.08542 18.8131L13.2051 14.6692L17.3369 18.8131C17.527 19.0275 17.783 19.1252 18.0824 19.1252C18.6563 19.1252 19.1204 18.6675 19.1204 18.0878C19.1204 17.8006 19.0227 17.5567 18.8146 17.3486L14.6701 13.2162L18.8267 9.05963C19.047 8.83942 19.1325 8.60768 19.1325 8.32044C19.1325 7.7529 18.6684 7.30731 18.1067 7.30731C17.8194 7.30731 17.5998 7.40498 17.3732 7.61941Z" fill="#1d7b41"/>
 </g>
</svg>
