<?xml version="1.0" encoding="UTF-8"?>
<!--Generator: Apple Native CoreSVG 326-->
<!DOCTYPE svg
PUBLIC "-//W3C//DTD SVG 1.1//EN"
       "http://www.w3.org/Graphics/SVG/1.1/DTD/svg11.dtd">
<svg version="1.1" xmlns="http://www.w3.org/2000/svg" xmlns:xlink="http://www.w3.org/1999/xlink" viewBox="0 0 17.0547 23.636">
 <g>
  <rect height="23.636" opacity="0" width="17.0547" x="0" y="0"/>
  <path d="M1.79811 23.6175L5.03785 23.6175C6.22329 23.6175 6.8238 23.017 6.8238 21.8194L6.8238 1.79811C6.8238 0.551977 6.22329 3.55271e-15 5.03785 3.55271e-15L1.79811 3.55271e-15C0.600499 3.55271e-15 4.44089e-16 0.60052 4.44089e-16 1.79811L4.44089e-16 21.8194C4.44089e-16 23.017 0.600499 23.6175 1.79811 23.6175ZM12.027 23.6175L15.2668 23.6175C16.4522 23.6175 17.0527 23.017 17.0527 21.8194L17.0527 1.79811C17.0527 0.551977 16.4522 3.55271e-15 15.2668 3.55271e-15L12.027 3.55271e-15C10.8294 3.55271e-15 10.2289 0.60052 10.2289 1.79811L10.2289 21.8194C10.2289 23.017 10.8294 23.6175 12.027 23.6175Z" fill="#1d7b41"/>
 </g>
</svg>
