<?xml version="1.0" encoding="UTF-8"?>

<!-- Logo -->
<svg 
 xmlns="http://www.w3.org/2000/svg"
 xmlns:xlink="http://www.w3.org/1999/xlink"
 width="28px" height="43px">
<path fill-rule="evenodd"  fill="rgb(29, 123, 65)"
 d="M3.578,42.848 L24.965,42.848 C26.650,42.848 27.797,41.701 27.797,40.016 L27.797,39.113 C27.797,34.035 21.645,27.101 17.152,22.658 C16.469,21.974 16.469,21.242 17.152,20.534 C21.645,16.090 27.797,9.181 27.797,4.103 L27.797,3.248 C27.797,1.539 26.650,0.392 24.965,0.392 L3.578,0.392 C1.869,0.392 0.722,1.539 0.722,3.248 L0.722,4.103 C0.722,9.181 6.899,16.090 11.366,20.534 C12.074,21.242 12.074,21.974 11.366,22.658 C6.899,27.101 0.722,34.035 0.722,39.113 L0.722,40.016 C0.722,41.701 1.869,42.848 3.578,42.848 ZM4.872,41.017 C4.311,41.017 3.993,40.382 4.530,39.845 L13.271,30.910 C13.612,30.568 13.637,30.446 13.637,30.006 L13.637,20.680 C13.637,20.265 13.612,20.094 13.271,19.801 C10.927,17.677 8.339,14.943 6.484,12.721 C6.166,12.282 6.337,11.891 6.801,11.891 L21.718,11.891 C22.182,11.891 22.377,12.282 22.035,12.721 C20.180,14.943 17.592,17.677 15.248,19.801 C14.906,20.094 14.882,20.265 14.882,20.680 L14.882,30.006 C14.882,30.446 14.906,30.568 15.248,30.910 L23.988,39.845 C24.526,40.382 24.208,41.017 23.671,41.017 L4.872,41.017 Z"/>
</svg>
<!-- time -->
<svg 
xmlns="http://www.w3.org/2000/svg"
xmlns:xlink="http://www.w3.org/1999/xlink"
width="84px" height="34px">
<path fill-rule="evenodd"  fill="rgb(0, 0, 0)"
d="M62.753,20.722 C62.851,28.388 66.830,32.612 72.787,32.612 C77.524,32.612 80.771,30.219 81.772,26.264 L81.820,26.069 L83.066,26.069 L83.017,26.288 C81.991,30.927 78.134,33.735 72.763,33.735 C66.000,33.735 61.532,28.827 61.532,20.649 L61.532,20.624 C61.532,12.470 66.000,7.563 72.470,7.563 C78.964,7.563 83.383,12.446 83.383,20.038 L83.383,20.722 L62.753,20.722 ZM72.470,8.686 C66.879,8.686 62.924,12.983 62.753,19.623 L82.211,19.623 C82.040,12.983 78.085,8.686 72.470,8.686 ZM55.637,16.596 C55.637,11.713 52.927,8.710 48.581,8.710 C44.016,8.710 40.964,12.348 40.964,17.670 L40.964,33.344 L39.768,33.344 L39.768,16.645 C39.768,11.835 36.814,8.710 32.712,8.710 C28.220,8.710 25.095,12.446 25.095,18.403 L25.095,33.344 L23.899,33.344 L23.899,7.953 L25.095,7.953 L25.095,13.666 L25.144,13.666 C25.998,10.248 28.732,7.587 32.858,7.587 C37.033,7.587 39.963,10.492 40.622,13.959 L40.671,13.959 C41.477,10.614 44.284,7.587 48.728,7.587 C53.586,7.587 56.833,10.981 56.833,16.303 L56.833,33.344 L55.637,33.344 L55.637,16.596 ZM16.929,2.778 C16.318,2.778 15.806,2.289 15.806,1.679 C15.806,1.044 16.318,0.580 16.929,0.580 C17.515,0.580 18.027,1.044 18.027,1.679 C18.027,2.289 17.515,2.778 16.929,2.778 ZM4.515,28.388 L4.515,9.052 L0.755,9.052 L0.755,7.953 L4.515,7.953 L4.515,1.093 L5.735,1.093 L5.735,7.953 L11.107,7.953 L11.107,9.052 L5.735,9.052 L5.735,28.290 C5.735,31.318 6.907,32.636 9.495,32.636 C10.179,32.636 10.740,32.587 11.107,32.489 L11.107,33.539 C10.667,33.661 10.008,33.735 9.324,33.735 C6.102,33.735 4.515,32.001 4.515,28.388 ZM17.515,33.344 L16.318,33.344 L16.318,7.953 L17.515,7.953 L17.515,33.344 Z"/>
</svg>
<!-- Keepr-->
<svg 
xmlns="http://www.w3.org/2000/svg"
xmlns:xlink="http://www.w3.org/1999/xlink"
width="115px" height="44px">
<path fill-rule="evenodd"  fill="rgb(29, 123, 65)"
d="M111.547,10.710 C107.348,10.710 104.760,14.372 104.760,19.499 L104.760,35.344 L103.564,35.344 L103.564,9.953 L104.760,9.953 L104.760,15.056 L104.809,15.056 C105.858,11.565 108.202,9.563 111.718,9.563 C112.792,9.563 113.769,9.807 114.281,10.051 L114.281,11.296 C113.695,10.979 112.792,10.710 111.547,10.710 ZM87.976,35.735 C82.995,35.735 79.187,32.243 78.186,27.922 L78.137,27.922 L78.137,43.889 L76.941,43.889 L76.941,9.953 L78.137,9.953 L78.137,17.473 L78.186,17.473 C79.260,13.054 83.020,9.563 87.976,9.563 C94.299,9.563 98.693,14.836 98.693,22.624 L98.693,22.673 C98.693,30.510 94.323,35.735 87.976,35.735 ZM97.497,22.624 C97.497,15.520 93.566,10.686 87.927,10.686 C82.190,10.686 78.137,15.544 78.137,22.624 L78.137,22.649 C78.137,29.729 82.165,34.612 87.927,34.612 C93.591,34.612 97.497,29.778 97.497,22.673 L97.497,22.624 ZM61.475,34.612 C66.211,34.612 69.458,32.219 70.459,28.264 L70.508,28.069 L71.753,28.069 L71.704,28.288 C70.679,32.927 66.821,35.735 61.450,35.735 C54.688,35.735 50.220,30.827 50.220,22.649 L50.220,22.624 C50.220,14.470 54.688,9.563 61.157,9.563 C67.651,9.563 72.070,14.446 72.070,22.038 L72.070,22.722 L51.441,22.722 C51.538,30.388 55.518,34.612 61.475,34.612 ZM70.899,21.623 C70.728,14.983 66.773,10.686 61.157,10.686 C55.566,10.686 51.611,14.983 51.441,21.623 L70.899,21.623 ZM36.048,34.612 C40.784,34.612 44.031,32.219 45.032,28.264 L45.081,28.069 L46.326,28.069 L46.277,28.288 C45.252,32.927 41.395,35.735 36.024,35.735 C29.261,35.735 24.793,30.827 24.793,22.649 L24.793,22.624 C24.793,14.470 29.261,9.563 35.731,9.563 C42.225,9.563 46.644,14.446 46.644,22.038 L46.644,22.722 L26.014,22.722 C26.111,30.388 30.091,34.612 36.048,34.612 ZM45.472,21.623 C45.301,14.983 41.346,10.686 35.731,10.686 C30.140,10.686 26.185,14.983 26.014,21.623 L45.472,21.623 ZM22.413,35.344 L6.935,16.472 L1.515,22.282 L1.515,35.344 L0.294,35.344 L0.294,0.114 L1.515,0.114 L1.515,20.573 L1.612,20.573 L20.704,0.114 L22.267,0.114 L7.814,15.617 L23.976,35.344 L22.413,35.344 Z"/>
</svg>








<!-- HourGlass-->
<!DOCTYPE svg
PUBLIC "-//W3C//DTD SVG 1.1//EN"
       "http://www.w3.org/Graphics/SVG/1.1/DTD/svg11.dtd">
<svg version="1.1" xmlns="http://www.w3.org/2000/svg" xmlns:xlink="http://www.w3.org/1999/xlink" viewBox="0 0 21.9161 34.3716">
 <g>
  <rect height="34.3716" opacity="0" width="21.9161" x="0" y="0"/>
  <path d="M21.9161 2.90776L21.9161 3.30592C21.9161 7.75325 17.0916 12.6894 14.2823 15.4746C13.2133 16.5277 13.15 17.6924 14.2823 18.8247C17.0916 21.6099 21.9161 26.5701 21.9161 30.9933L21.9161 31.4397C21.9161 33.3124 20.8018 34.3475 19.0083 34.3475L2.90857 34.3475C1.1151 34.3475 0.000819486 33.3124 0.000819486 31.4397L0.000819486 30.9933C0.000819486 26.5701 4.82525 21.6099 7.63456 18.8247C8.76683 17.6924 8.68771 16.5277 7.63456 15.4746C4.82525 12.6894 0.000819486 7.75325 0.000819486 3.30592L0.000819486 2.90776C0.000819486 1.03512 1.1151 3.55271e-15 2.90857 3.55271e-15L19.0083 3.55271e-15C20.8018 3.55271e-15 21.9161 1.03512 21.9161 2.90776ZM5.54433 9.13991C5.00833 9.13991 4.76858 9.66687 5.20811 10.1313C6.42573 11.4726 8.2624 13.1126 9.64445 14.334C10.2106 14.8127 10.3455 15.1783 10.3455 15.9435L10.3455 24.0669C10.3455 24.373 10.2739 24.4695 10.0402 24.6957L3.84646 30.6859C3.3255 31.1752 3.51927 32.0218 4.25429 32.0218L17.6467 32.0218C18.3818 32.0218 18.5755 31.1752 18.0704 30.6859L11.8767 24.6957C11.643 24.4695 11.5713 24.373 11.5713 24.0669L11.5713 15.9435C11.5713 15.1783 11.7063 14.8127 12.2566 14.334C13.6545 13.1126 15.4828 11.4726 16.6929 10.1313C17.14 9.66687 16.9085 9.13991 16.3725 9.13991Z" fill="#28cd41"/>
 </g>
</svg>